<svg width="29" height="29" viewBox="0 0 29 29" fill="none" xmlns="http://www.w3.org/2000/svg">
<g id="streamline:mail-send-email-message-solid" clip-path="url(#clip0_702_4710)">
<path id="Vector" fill-rule="evenodd" clip-rule="evenodd" d="M28.6971 0.302784C28.8391 0.444648 28.9369 0.62472 28.9784 0.821098C29.02 1.01748 29.0036 1.2217 28.9312 1.40893L18.5741 28.3375C18.5007 28.5281 18.3727 28.6927 18.2062 28.8107C18.0396 28.9287 17.8418 28.9949 17.6377 29.0009C17.4337 29.0068 17.2324 28.9524 17.0592 28.8443C16.8859 28.7362 16.7485 28.5794 16.6642 28.3934L12.3328 18.8649L18.7046 12.4911C18.979 12.1966 19.1284 11.807 19.1213 11.4046C19.1142 11.0021 18.9511 10.6181 18.6665 10.3334C18.3818 10.0488 17.9978 9.88574 17.5953 9.87864C17.1929 9.87154 16.8033 10.0209 16.5088 10.2954L10.1351 16.6671L0.606481 12.3378C0.419984 12.2536 0.262617 12.116 0.154242 11.9424C0.0458676 11.7688 -0.00865823 11.567 -0.00245329 11.3625C0.00375165 11.1579 0.0704092 10.9598 0.189107 10.7931C0.307804 10.6264 0.473221 10.4986 0.664481 10.4259L27.5931 0.068713C27.78 -0.00321832 27.9838 -0.0193911 28.1798 0.0221539C28.3757 0.063699 28.5554 0.161179 28.6971 0.302784Z" fill="#0060FF"/>
</g>
<defs>
<clipPath id="clip0_702_4710">
<rect width="29" height="29" fill="white"/>
</clipPath>
</defs>
</svg>
