<svg width="39" height="39" viewBox="0 0 39 39" fill="none" xmlns="http://www.w3.org/2000/svg">
<g id="fluent:chat-video-20-regular">
<path id="Vector" d="M11.5496 15.4001C11.5496 14.8896 11.7524 14.3999 12.1134 14.0389C12.4744 13.6779 12.9641 13.4751 13.4746 13.4751H19.2496C19.7602 13.4751 20.2498 13.6779 20.6108 14.0389C20.9718 14.3999 21.1746 14.8896 21.1746 15.4001V23.1001C21.1746 23.6106 20.9718 24.1003 20.6108 24.4613C20.2498 24.8223 19.7602 25.0251 19.2496 25.0251H13.4746C12.9641 25.0251 12.4744 24.8223 12.1134 24.4613C11.7524 24.1003 11.5496 23.6106 11.5496 23.1001V15.4001ZM23.0996 17.3251L25.3057 15.119C25.4402 14.9842 25.6116 14.8923 25.7984 14.855C25.9851 14.8176 26.1788 14.8365 26.3548 14.9093C26.5308 14.982 26.6813 15.1054 26.7871 15.2637C26.893 15.422 26.9496 15.6081 26.9496 15.7986V22.7016C26.9496 22.8921 26.893 23.0782 26.7871 23.2365C26.6813 23.3948 26.5308 23.5182 26.3548 23.5909C26.1788 23.6637 25.9851 23.6826 25.7984 23.6452C25.6116 23.6079 25.4402 23.516 25.3057 23.3811L23.0996 21.1751V17.3251ZM19.2496 3.8501C21.5752 3.85144 23.8703 4.37948 25.9627 5.3946C28.0551 6.40971 29.8904 7.88553 31.3309 9.71131C32.7713 11.5371 33.7796 13.6654 34.28 15.9366C34.7804 18.2077 34.7599 20.5627 34.2201 22.8248C33.6803 25.0869 32.6351 27.1973 31.1631 28.9978C29.6911 30.7982 27.8304 32.2419 25.7207 33.2204C23.6109 34.199 21.307 34.687 18.9817 34.6479C16.6564 34.6088 14.3702 34.0436 12.2946 32.9946L12.0617 32.8695L5.04503 34.6212C4.91 34.6552 4.7692 34.6594 4.63236 34.6337C4.49552 34.6079 4.3659 34.5528 4.25243 34.4721C4.13897 34.3914 4.04436 34.287 3.97515 34.1662C3.90594 34.0454 3.86376 33.911 3.85153 33.7723V33.6144L3.87848 33.4547L5.63023 26.44L5.50896 26.209C4.62805 24.4748 4.08579 22.5887 3.91121 20.6515L3.86308 19.9161L3.84961 19.2501C3.84961 15.1658 5.4721 11.2487 8.36017 8.36065C11.2482 5.47259 15.1653 3.8501 19.2496 3.8501ZM19.2496 5.7751C16.8981 5.77472 14.5875 6.38968 12.5473 7.55888C10.5072 8.72808 8.80846 10.4108 7.62004 12.4398C6.43161 14.4689 5.79484 16.7736 5.77301 19.125C5.75117 21.4763 6.34502 23.7925 7.49556 25.8432C7.58488 26.0027 7.62695 26.1843 7.61683 26.3668L7.58988 26.5478L6.13458 32.3632L11.9558 30.9117C12.0741 30.8826 12.1969 30.876 12.3177 30.8925L12.4929 30.9329L12.6603 31.008C14.457 32.0138 16.4603 32.5945 18.5164 32.7055C20.5725 32.8165 22.6266 32.4548 24.5212 31.6482C26.4157 30.8416 28.1002 29.6116 29.4452 28.0526C30.7903 26.4936 31.7602 24.647 32.2805 22.6548C32.8007 20.6625 32.8575 18.5775 32.4464 16.5599C32.0353 14.5423 31.1673 12.6457 29.9091 11.0158C28.6508 9.38589 27.0358 8.06603 25.1879 7.15756C23.3401 6.24908 21.3087 5.77616 19.2496 5.7751Z" fill="#DADADA"/>
</g>
</svg>
