<svg width="24" height="24" viewBox="0 0 24 24" fill="none" xmlns="http://www.w3.org/2000/svg">
<g id="Message Sircle Chat Box">
<g id="Group 46">
<path id="Rectangle 1" d="M3 12C3 7.58172 6.58172 4 11 4H11.5C15.6421 4 19 7.35786 19 11.5V11.5C19 15.6421 15.6421 19 11.5 19H4C3.44772 19 3 18.5523 3 18V12Z" stroke="#949494" stroke-width="1.5"/>
<path id="Rectangle 2" d="M19.4873 9.42986C19.1724 9.16074 18.699 9.19784 18.4299 9.51272C18.1607 9.8276 18.1978 10.301 18.5127 10.5701L19.4873 9.42986ZM12.3626 18.577C12.0001 18.3767 11.5438 18.5083 11.3435 18.8709C11.1432 19.2334 11.2748 19.6897 11.6374 19.89L12.3626 18.577ZM15 20.75H20V19.25H15V20.75ZM21.75 19.0451V14.2706H20.25V19.0451H21.75ZM20 20.75C20.9335 20.75 21.75 20.0189 21.75 19.0451H20.25C20.25 19.126 20.1711 19.25 20 19.25V20.75ZM18.5127 10.5701C19.5858 11.4872 20.25 12.8086 20.25 14.2706H21.75C21.75 12.3387 20.8692 10.611 19.4873 9.42986L18.5127 10.5701ZM11.6374 19.89C12.6293 20.4379 13.7784 20.75 15 20.75V19.25C14.0359 19.25 13.1358 19.0041 12.3626 18.577L11.6374 19.89Z" fill="#949494"/>
<circle id="Ellipse 7" cx="7" cy="12" r="1" fill="#949494"/>
<circle id="Ellipse 8" cx="11" cy="12" r="1" fill="#949494"/>
<circle id="Ellipse 9" cx="15" cy="12" r="1" fill="#949494"/>
</g>
</g>
</svg>
