<svg width="39" height="39" viewBox="0 0 39 39" fill="none" xmlns="http://www.w3.org/2000/svg">
<g id="discount-shape 1">
<path id="Vector" d="M19.2479 36.4914C18.2374 36.4914 17.291 36.1066 16.5852 35.3848L14.1472 32.9467C13.9547 32.7542 13.4414 32.5457 13.1848 32.5457H9.72012C7.63492 32.5457 5.95071 30.8614 5.95071 28.7762V25.3117C5.95071 25.055 5.74219 24.5418 5.54971 24.3493L3.11164 21.9112C2.40588 21.2054 2.00488 20.2589 2.00488 19.2484C2.00488 18.2379 2.38984 17.2915 3.11164 16.5858L5.54971 14.1476C5.74219 13.9552 5.95071 13.4419 5.95071 13.1853V9.72078C5.95071 7.63558 7.63492 5.95122 9.72012 5.95122H13.1848C13.4414 5.95122 13.9547 5.7427 14.1472 5.55022L16.5852 3.11211C17.9968 1.70059 20.499 1.70059 21.9105 3.11211L24.3486 5.55022C24.5411 5.7427 25.0544 5.95122 25.311 5.95122H28.7756C30.8608 5.95122 32.545 7.63558 32.545 9.72078V13.1853C32.545 13.4419 32.7536 13.9552 32.946 14.1476L35.3841 16.5858C36.0899 17.2915 36.4909 18.2379 36.4909 19.2484C36.4909 20.2589 36.1059 21.2054 35.3841 21.9112L32.946 24.3493C32.7536 24.5418 32.545 25.055 32.545 25.3117V28.7762C32.545 30.8614 30.8608 32.5457 28.7756 32.5457H25.311C25.0544 32.5457 24.5411 32.7542 24.3486 32.9467L21.9105 35.3848C21.2048 36.1066 20.2584 36.4914 19.2479 36.4914ZM7.24995 22.6489C7.89155 23.2905 8.35671 24.4134 8.35671 25.3117V28.7762C8.35671 29.53 8.96624 30.1397 9.72012 30.1397H13.1848C14.083 30.1397 15.2058 30.6047 15.8474 31.2463L18.2855 33.6844C18.7988 34.1977 19.697 34.1977 20.2103 33.6844L22.6484 31.2463C23.29 30.6047 24.4128 30.1397 25.311 30.1397H28.7756C29.5295 30.1397 30.139 29.53 30.139 28.7762V25.3117C30.139 24.4134 30.6042 23.2905 31.2458 22.6489L33.6839 20.2108C33.9405 19.9542 34.0849 19.6173 34.0849 19.2484C34.0849 18.8795 33.9405 18.5428 33.6839 18.2862L31.2458 15.848C30.6042 15.2064 30.139 14.0835 30.139 13.1853V9.72078C30.139 8.9669 29.5295 8.35722 28.7756 8.35722H25.311C24.4128 8.35722 23.29 7.89216 22.6484 7.25056L20.2103 4.81244C19.697 4.29916 18.7988 4.29916 18.2855 4.81244L15.8474 7.25056C15.2058 7.89216 14.083 8.35722 13.1848 8.35722H9.72012C8.96624 8.35722 8.35671 8.9669 8.35671 9.72078V13.1853C8.35671 14.0835 7.89155 15.2064 7.24995 15.848L4.81188 18.2862C4.55524 18.5428 4.41088 18.8795 4.41088 19.2484C4.41088 19.6173 4.55524 19.9542 4.81188 20.2108L7.24995 22.6489Z" fill="#DADADA"/>
<path id="Vector_2" d="M24.0605 25.6641C23.1622 25.6641 22.4404 24.9423 22.4404 24.0601C22.4404 23.1779 23.1622 22.4561 24.0444 22.4561C24.9266 22.4561 25.6484 23.1779 25.6484 24.0601C25.6484 24.9423 24.9427 25.6641 24.0605 25.6641Z" fill="#DADADA"/>
<path id="Vector_3" d="M14.4521 16.04C13.5538 16.04 12.832 15.3182 12.832 14.436C12.832 13.5538 13.5538 12.832 14.436 12.832C15.3182 12.832 16.04 13.5538 16.04 14.436C16.04 15.3182 15.3343 16.04 14.4521 16.04Z" fill="#DADADA"/>
<path id="Vector_4" d="M14.4353 25.2622C14.1306 25.2622 13.8258 25.1499 13.5852 24.9093C13.12 24.4441 13.12 23.6742 13.5852 23.209L23.2093 13.585C23.6744 13.1198 24.4444 13.1198 24.9095 13.585C25.3747 14.0501 25.3747 14.8201 24.9095 15.2853L15.2854 24.9093C15.0448 25.1499 14.7401 25.2622 14.4353 25.2622Z" fill="#DADADA"/>
</g>
</svg>
