<svg width="33" height="33" viewBox="0 0 33 33" fill="none" xmlns="http://www.w3.org/2000/svg">
<g id="solar:folder-with-files-broken">
<g id="Group">
<path id="Vector" d="M24.75 13.75H17.875" stroke="#6C6C6C" stroke-width="1.5" stroke-linecap="round"/>
<path id="Vector_2" d="M13.75 4.125H22.6875C23.3255 4.125 23.6459 4.125 23.914 4.16075C24.8139 4.27944 25.6496 4.69166 26.2915 5.33352C26.9333 5.97539 27.3456 6.81106 27.4643 7.711C27.5 7.97912 27.5 8.2995 27.5 8.9375" stroke="#6C6C6C" stroke-width="1.5"/>
<path id="Vector_3" d="M30.25 16.2223C30.25 12.6033 30.25 10.7924 29.1912 9.61675C29.0941 9.50823 28.9913 9.40496 28.8833 9.30738C27.7076 8.25 25.8967 8.25 22.2777 8.25H21.7635C20.1781 8.25 19.3848 8.25 18.645 8.03963C18.239 7.92358 17.8478 7.76118 17.479 7.55562C16.808 7.183 16.247 6.62062 15.125 5.5L14.3687 4.74375C13.992 4.367 13.805 4.18 13.607 4.015C12.7554 3.30913 11.7108 2.87642 10.6095 2.77337C10.3538 2.75 10.087 2.75 9.55625 2.75C8.34212 2.75 7.73575 2.75 7.22975 2.84625C6.14328 3.05143 5.14387 3.57931 4.36192 4.36102C3.57997 5.14273 3.05177 6.14197 2.84625 7.22837C2.75 7.73575 2.75 8.3435 2.75 9.55625M30.2376 22C30.1881 25.41 29.9351 27.3419 28.6385 28.6385C27.0284 30.25 24.4351 30.25 19.25 30.25H13.75C8.56488 30.25 5.97162 30.25 4.3615 28.6385C2.75 27.0284 2.75 24.4351 2.75 19.25V15.125" stroke="#6C6C6C" stroke-width="1.5" stroke-linecap="round"/>
</g>
</g>
</svg>
