<svg width="23" height="23" viewBox="0 0 23 23" fill="none" xmlns="http://www.w3.org/2000/svg">
<g id="Vector">
<path id="Vector_2" d="M11.5 9.40906V13.8627H17.6891C17.4173 15.295 16.6017 16.5077 15.3786 17.3232L19.1108 20.2191C21.2854 18.2119 22.5399 15.2637 22.5399 11.7614C22.5399 10.946 22.4668 10.1618 22.3308 9.40918L11.5 9.40906Z" fill="#4285F4"/>
<path id="Vector_3" d="M5.05476 13.6888L4.21299 14.3332L1.2334 16.6541C3.12567 20.4072 7.00402 23 11.4994 23C14.6044 23 17.2075 21.9754 19.1103 20.2191L15.378 17.3232C14.3535 18.0132 13.0466 18.4314 11.4994 18.4314C8.50945 18.4314 5.96907 16.4137 5.05946 13.6955L5.05476 13.6888Z" fill="#34A853"/>
<path id="Vector_4" d="M1.23355 6.34595C0.449499 7.89316 0 9.63909 0 11.5C0 13.3608 0.449499 15.1068 1.23355 16.654C1.23355 16.6644 5.05998 13.6849 5.05998 13.6849C4.82998 12.9949 4.69403 12.2631 4.69403 11.4998C4.69403 10.7366 4.82998 10.0048 5.05998 9.3148L1.23355 6.34595Z" fill="#FBBC05"/>
<path id="Vector_5" d="M11.4997 4.57909C13.1933 4.57909 14.6988 5.16453 15.901 6.29363L19.1942 3.00049C17.1974 1.13962 14.6047 0 11.4997 0C7.00425 0 3.12567 2.58227 1.2334 6.34592L5.05971 9.31501C5.9692 6.5968 8.50969 4.57909 11.4997 4.57909Z" fill="#EA4335"/>
</g>
</svg>
