<svg width="20" height="19" viewBox="0 0 20 19" fill="none" xmlns="http://www.w3.org/2000/svg">
<g id="1f44b.svg" clip-path="url(#clip0_37_1390)">
<path id="Vector" d="M2.70052 4.82765C3.22274 4.4809 4.00996 4.5474 4.47885 4.91526L3.94107 4.17268C3.50829 3.58632 3.66329 2.95193 4.28107 2.54027C4.89885 2.13018 6.64941 3.23271 6.64941 3.23271C6.21274 2.64054 6.2944 1.89004 6.91774 1.47468C7.54107 1.0609 8.40107 1.20393 8.83774 1.79715L14.6266 9.56604L13.8889 16.3612L7.73163 14.2279L2.36107 6.66326C1.92052 6.0674 2.07274 5.24565 2.70052 4.82765Z" fill="#EF9645"/>
<path id="Vector_2" d="M1.49718 9.14944C1.49718 9.14944 0.868288 8.2786 1.78551 7.68169C2.70162 7.08477 3.32995 7.95507 3.32995 7.95507L6.24718 11.9968C6.34773 11.8374 6.45773 11.6801 6.58051 11.525L2.53162 5.91627C2.53162 5.91627 1.90329 5.04596 2.81995 4.44905C3.73607 3.85213 4.3644 4.72244 4.3644 4.72244L8.17273 9.99863C8.3144 9.88885 8.4594 9.77855 8.60884 9.67035L4.19384 3.55288C4.19384 3.55288 3.56551 2.68257 4.48218 2.08566C5.39829 1.48874 6.02662 2.35905 6.02662 2.35905L10.4416 8.47546C10.6038 8.38099 10.7644 8.29919 10.9255 8.21263L6.79884 2.49574C6.79884 2.49574 6.17051 1.62544 7.08662 1.02852C8.00273 0.431602 8.63107 1.30191 8.63107 1.30191L12.9944 7.34707L13.6577 8.26646C10.9088 10.0577 10.6472 13.4276 12.2177 15.6036C12.5316 16.039 12.99 15.7409 12.99 15.7409C11.105 13.1289 11.6805 10.1939 14.43 8.40316L13.6194 4.54932C13.6194 4.54932 13.3166 3.53388 14.385 3.24571C15.4538 2.95807 15.7572 3.97352 15.7572 3.97352L16.6933 6.61452C17.0644 7.66163 17.4594 8.70505 17.9822 9.69199C19.4583 12.4787 18.5766 15.9419 15.7933 17.7559C12.7572 19.7335 8.60662 18.9983 6.5244 16.1145L1.49718 9.14944Z" fill="#FFDC5D"/>
<g id="Group">
<path id="Vector_3" d="M6.66666 16.9108C4.44443 16.9108 2.19888 14.7776 2.19888 12.6664C2.19888 12.3746 1.97388 12.1387 1.66666 12.1387C1.35944 12.1387 1.08777 12.3746 1.08777 12.6664C1.08777 15.8331 3.33332 17.9664 6.66666 17.9664C6.97388 17.9664 7.22221 17.7083 7.22221 17.4164C7.22221 17.1246 6.97388 16.9108 6.66666 16.9108Z" fill="#5DADEC"/>
<path id="Vector_4" d="M3.88889 17.9441C2.22222 17.9441 1.11111 16.8885 1.11111 15.3052C1.11111 15.0133 0.862778 14.7774 0.555556 14.7774C0.248333 14.7774 0 15.0133 0 15.3052C0 17.4163 1.66667 18.9996 3.88889 18.9996C4.19611 18.9996 4.44444 18.7637 4.44444 18.4718C4.44444 18.18 4.19611 17.9441 3.88889 17.9441ZM13.3333 1.05518C13.0267 1.05518 12.7778 1.29162 12.7778 1.58295C12.7778 1.87429 13.0267 2.11073 13.3333 2.11073C15.5556 2.11073 17.7778 4.00493 17.7778 6.33295C17.7778 6.62429 18.0267 6.86073 18.3333 6.86073C18.64 6.86073 18.8889 6.62429 18.8889 6.33295C18.8889 3.42279 16.6667 1.05518 13.3333 1.05518Z" fill="#5DADEC"/>
<path id="Vector_5" d="M16.1111 0.0219727C15.8044 0.0219727 15.5555 0.23625 15.5555 0.527584C15.5555 0.818917 15.8044 1.07753 16.1111 1.07753C17.7778 1.07753 18.8655 2.25183 18.8655 3.69425C18.8655 3.98558 19.1372 4.22203 19.4444 4.22203C19.7517 4.22203 19.9767 3.98558 19.9767 3.69425C19.9767 1.66917 18.3333 0.0219727 16.1111 0.0219727Z" fill="#5DADEC"/>
</g>
</g>
<defs>
<clipPath id="clip0_37_1390">
<rect width="20" height="19" fill="white"/>
</clipPath>
</defs>
</svg>
