<svg width="70" height="59" viewBox="0 0 70 59" fill="none" xmlns="http://www.w3.org/2000/svg">
<path d="M30.3242 4.38909C27.2479 2.06469 23.5192 0.765387 19.6645 0.674653C15.8099 0.58392 12.0242 1.70635 8.84192 3.88342C-0.810163 10.4861 -1.93425 24.3031 6.52371 32.3784L33.5256 58.1606C33.9229 58.5397 34.4508 58.7512 34.9999 58.7512C35.549 58.7512 36.077 58.5397 36.4742 58.1606L63.471 32.3818C71.9307 24.3031 70.8049 10.4861 61.1511 3.88342C57.9679 1.70654 54.1812 0.584707 50.3259 0.676361C46.4706 0.768015 42.7416 2.06853 39.6654 4.39422L34.9999 7.92192L30.3242 4.38909Z" fill="url(#paint0_linear_134_639)"/>
<defs>
<linearGradient id="paint0_linear_134_639" x1="34.9999" y1="59.0001" x2="49.9999" y2="-9.49988" gradientUnits="userSpaceOnUse">
<stop stop-color="#FF0000"/>
<stop offset="0.385" stop-color="#FF0000" stop-opacity="0.786667"/>
<stop offset="0.975" stop-color="#FF0000" stop-opacity="0.4"/>
</linearGradient>
</defs>
</svg>
