<svg width="39" height="39" viewBox="0 0 39 39" fill="none" xmlns="http://www.w3.org/2000/svg">
<g id="icon / 24 / outline / key-square">
<path id="Vector" d="M14.436 35.288H24.06C32.08 35.288 35.288 32.08 35.288 24.06V14.436C35.288 6.41601 32.08 3.20801 24.06 3.20801H14.436C6.41601 3.20801 3.20801 6.41601 3.20801 14.436V24.06C3.20801 32.08 6.41601 35.288 14.436 35.288Z" stroke="white" stroke-width="1.5" stroke-linecap="round" stroke-linejoin="round"/>
<path id="Vector_2" d="M26.1134 21.8306C24.3009 23.6431 21.7024 24.2045 19.4087 23.4827L15.2543 27.621C14.9656 27.9258 14.3721 28.1182 13.939 28.0541L12.0142 27.7974C11.3726 27.7172 10.7952 27.1077 10.699 26.4822L10.4423 24.5574C10.3782 24.1403 10.5867 23.5468 10.8754 23.2421L15.0137 19.1038C14.308 16.81 14.8533 14.2116 16.6658 12.3991C19.2643 9.80058 23.4989 9.80058 26.1134 12.3991C28.7119 14.9815 28.7119 19.216 26.1134 21.8306Z" stroke="white" stroke-width="1.5" stroke-miterlimit="10" stroke-linecap="round" stroke-linejoin="round"/>
<path id="Vector_3" d="M16.7619 26.1133L15.3984 24.7339" stroke="white" stroke-width="1.5" stroke-miterlimit="10" stroke-linecap="round" stroke-linejoin="round"/>
<path id="Vector_4" d="M21.4844 17.1626H21.4977" stroke="white" stroke-width="2" stroke-linecap="round" stroke-linejoin="round"/>
</g>
</svg>
