<svg width="26" height="26" viewBox="0 0 26 26" fill="none" xmlns="http://www.w3.org/2000/svg">
<g id="ant-design:audio-filled">
<path id="Vector" d="M13 15.8438C15.3842 15.8438 17.3164 13.9344 17.3164 11.5781V5.89062C17.3164 3.53437 15.3842 1.625 13 1.625C10.6158 1.625 8.68359 3.53437 8.68359 5.89062V11.5781C8.68359 13.9344 10.6158 15.8438 13 15.8438ZM21.3789 11.5273C21.3789 11.4156 21.2875 11.3242 21.1758 11.3242H19.6523C19.5406 11.3242 19.4492 11.4156 19.4492 11.5273C19.4492 15.0896 16.5623 17.9766 13 17.9766C9.4377 17.9766 6.55078 15.0896 6.55078 11.5273C6.55078 11.4156 6.45938 11.3242 6.34766 11.3242H4.82422C4.7125 11.3242 4.62109 11.4156 4.62109 11.5273C4.62109 15.8107 7.83555 19.3451 11.9844 19.8453V22.4453H8.29512C7.94727 22.4453 7.66797 22.8084 7.66797 23.2578V24.1719C7.66797 24.2836 7.73906 24.375 7.82539 24.375H18.1746C18.2609 24.375 18.332 24.2836 18.332 24.1719V23.2578C18.332 22.8084 18.0527 22.4453 17.7049 22.4453H13.9141V19.858C18.1111 19.401 21.3789 15.8463 21.3789 11.5273Z" fill="white"/>
</g>
</svg>
