<svg width="35" height="35" viewBox="0 0 35 35" fill="none" xmlns="http://www.w3.org/2000/svg">
<g id="noto:money-bag">
<path id="Vector" d="M25.5557 10.7869C27.3905 10.3794 29.7804 8.55835 30.144 7.66147C30.3573 7.13647 29.2936 6.31616 29.0093 5.9853C28.3585 5.23061 28.621 4.85874 28.8725 3.95913C29.1597 2.93647 28.4788 1.80718 27.5136 1.36421C26.5483 0.92124 25.3944 1.06069 24.4237 1.49272C23.453 1.92476 22.6245 2.61929 21.8124 3.30288C21.219 2.92827 20.2729 1.27397 18.7417 2.34858C17.6835 3.0896 17.5878 4.70288 17.7245 5.99077C18.0444 8.96304 18.7772 10.5052 20.1581 10.9208C21.9026 11.4458 23.8331 11.1697 25.5557 10.7869Z" fill="#FFCA28"/>
<path id="Vector_2" d="M28.5357 2.23633C28.3032 6.24219 24.3958 8.9 22.5419 10.0703L23.745 11.1039C23.745 11.1039 24.5079 11.1203 25.5525 10.7867C27.3435 10.218 29.9603 8.61016 30.1407 7.66133C30.406 6.28047 28.9896 6.58125 28.6696 5.49023C28.5029 4.91328 29.4818 3.82227 28.5357 2.23633ZM21.8146 3.30547C21.8146 3.30547 21.1173 2.5918 20.6005 2.26641C20.3435 2.75039 20.1603 3.27539 20.07 3.8168C19.9087 4.76836 20.07 6.11914 20.4501 7.12539C20.5103 7.28125 20.7345 7.25664 20.7591 7.09258C21.0872 4.92969 21.8146 3.30547 21.8146 3.30547Z" fill="#E2A610"/>
<path id="Vector_3" d="M16.9416 10.4346C16.9416 10.4346 8.41311 11.3561 4.56584 18.7608C0.718578 26.1655 3.98889 30.6553 7.45061 32.2905C10.9123 33.9256 19.635 34.5026 25.3088 33.1573C30.9826 31.812 32.4018 29.0229 32.1365 26.3295C31.751 22.3975 28.0979 19.9803 28.0979 19.9803C28.0979 19.9803 28.2428 15.1241 24.4748 11.9713C21.1307 9.17134 16.9416 10.4346 16.9416 10.4346Z" fill="#FFCA28"/>
<path id="Vector_4" d="M20.4421 22.8948C18.6128 20.587 16.4526 20.278 15.7608 19.4495C15.3835 18.9983 15.162 18.5417 15.2468 17.9757C15.337 17.3741 16.0343 16.9585 16.5757 16.8573C17.2073 16.737 18.7139 16.7999 19.98 18.0057C20.2807 18.2901 20.1714 18.7331 20.1632 19.1296C20.1413 19.98 21.3581 20.8057 22.3425 20.0948C23.3296 19.3811 22.5722 17.7925 21.935 17.0214C21.4538 16.439 19.7093 15.1565 17.5409 14.9542C16.9311 14.8968 14.4784 14.5331 13.062 17.2265C12.6546 18.0003 12.5042 19.8706 14.637 21.4511C15.0827 21.7819 17.396 22.9577 18.0386 23.7206C19.1514 25.0413 18.3886 26.2034 17.519 26.3565C15.1483 26.7722 13.8057 25.4897 13.5569 24.787C13.3792 24.2866 13.5651 23.7452 13.3354 23.2749C13.1003 22.7909 12.619 22.5995 12.1104 22.7608C10.4425 23.2913 10.9729 25.1151 11.7112 26.1186C12.5014 27.1932 13.4721 27.8413 14.5632 28.1968C18.6346 29.5229 20.5925 27.4284 20.9343 25.8944C21.1858 24.7706 21.1585 23.7972 20.4421 22.8948Z" fill="#6B4B46"/>
<path id="Vector_5" d="M19.457 13.3955C15.9926 20.7947 15.3965 30.1381 15.3965 30.1381" stroke="#6B4B46" stroke-width="2" stroke-miterlimit="10"/>
<path id="Vector_6" d="M22.3312 8.73921C24.639 9.49116 25.1503 11.5775 24.9835 12.1462C24.7839 12.8134 22.2273 10.2158 18.4265 10.3716C17.0976 10.4263 17.4831 9.61147 18.0984 9.14116C18.9105 8.52046 20.2749 8.07202 22.3312 8.73921Z" fill="#6D4C41"/>
<path id="Vector_7" d="M22.3312 8.73921C24.639 9.49116 25.1503 11.5775 24.9835 12.1462C24.7839 12.8134 22.2273 10.2158 18.4265 10.3716C17.0976 10.4263 17.4831 9.61147 18.0984 9.14116C18.9105 8.52046 20.2749 8.07202 22.3312 8.73921Z" fill="#6B4B46"/>
<path id="Vector_8" d="M26.3848 16.0948C26.6747 15.8952 27.6481 16.2397 27.9215 18.1456C28.0555 19.078 28.0965 19.9803 28.0965 19.9803C28.0965 19.9803 26.9481 18.9495 26.568 18.2249C26.0895 17.3088 25.9036 16.4229 26.3848 16.0948Z" fill="#E2A610"/>
</g>
</svg>
