<svg width="21" height="21" viewBox="0 0 21 21" fill="none" xmlns="http://www.w3.org/2000/svg">
<g id="circum:edit">
<path id="Vector" d="M3.10449 18.3208H17.892C18.008 18.3208 18.1193 18.2747 18.2014 18.1927C18.2834 18.1106 18.3295 17.9993 18.3295 17.8833C18.3295 17.7673 18.2834 17.656 18.2014 17.5739C18.1193 17.4919 18.008 17.4458 17.892 17.4458H3.10449C2.98846 17.4458 2.87718 17.4919 2.79513 17.5739C2.71309 17.656 2.66699 17.7673 2.66699 17.8833C2.66699 17.9993 2.71309 18.1106 2.79513 18.1927C2.87718 18.2747 2.98846 18.3208 3.10449 18.3208ZM8.49624 15.0325C8.86584 14.9291 9.20307 14.7334 9.47624 14.4638L17.8237 6.1163C18.1096 5.82931 18.2701 5.44074 18.2701 5.03567C18.2701 4.6306 18.1096 4.24204 17.8237 3.95505L17.0012 3.1413C16.7102 2.86327 16.3231 2.70813 15.9206 2.70813C15.5181 2.70813 15.1311 2.86327 14.84 3.1413L6.49249 11.48C6.22241 11.7514 6.02917 12.0896 5.93249 12.46L5.28499 14.875C5.25427 14.9854 5.25348 15.1019 5.2827 15.2126C5.31192 15.3233 5.37009 15.4243 5.45124 15.505C5.57509 15.6268 5.74132 15.6958 5.91499 15.6975L8.49624 15.0325ZM8.85499 13.8425C8.69368 14.0068 8.49121 14.1246 8.26874 14.1838L7.41999 14.4113L6.54499 13.5363L6.77249 12.6875C6.8337 12.4659 6.95126 12.264 7.11374 12.1013L7.44624 11.7775L9.18749 13.5188L8.85499 13.8425ZM9.80874 12.8975L8.06749 11.1563L13.9562 5.26755L15.6975 7.0088L9.80874 12.8975ZM17.2025 5.5038L16.3187 6.38755L14.5775 4.6463L15.4612 3.7538C15.5221 3.69274 15.5943 3.64429 15.6739 3.61123C15.7535 3.57817 15.8388 3.56115 15.925 3.56115C16.0112 3.56115 16.0965 3.57817 16.1761 3.61123C16.2557 3.64429 16.3279 3.69274 16.3887 3.7538L17.2025 4.5763C17.3245 4.69979 17.393 4.86642 17.393 5.04005C17.393 5.21368 17.3245 5.3803 17.2025 5.5038Z" fill="#6C6C6C"/>
</g>
</svg>
