<svg width="24" height="24" viewBox="0 0 24 24" fill="none" xmlns="http://www.w3.org/2000/svg">
<g id="ph:wallet-light">
<path id="Vector" d="M21.7589 6.45281H5.4324C5.16177 6.45281 4.90222 6.3453 4.71086 6.15394C4.5195 5.96257 4.41199 5.70303 4.41199 5.4324C4.41199 5.16177 4.5195 4.90222 4.71086 4.71086C4.90222 4.5195 5.16177 4.41199 5.4324 4.41199H19.3099C19.4723 4.41199 19.6281 4.34749 19.7429 4.23267C19.8577 4.11785 19.9222 3.96212 19.9222 3.79974C19.9222 3.63737 19.8577 3.48164 19.7429 3.36682C19.6281 3.252 19.4723 3.1875 19.3099 3.1875H5.4324C4.83701 3.1875 4.26602 3.42402 3.84502 3.84502C3.42402 4.26602 3.1875 4.83701 3.1875 5.4324V18.4936C3.1875 19.089 3.42402 19.66 3.84502 20.081C4.26602 20.502 4.83701 20.7385 5.4324 20.7385H21.7589C22.1378 20.7385 22.5012 20.588 22.7691 20.3201C23.037 20.0522 23.1875 19.6888 23.1875 19.3099V7.88138C23.1875 7.5025 23.037 7.13913 22.7691 6.87122C22.5012 6.60332 22.1378 6.45281 21.7589 6.45281ZM21.963 19.3099C21.963 19.3641 21.9415 19.416 21.9032 19.4543C21.865 19.4925 21.8131 19.514 21.7589 19.514H5.4324C5.16177 19.514 4.90222 19.4065 4.71086 19.2152C4.5195 19.0238 4.41199 18.7643 4.41199 18.4936V7.43138C4.7277 7.59342 5.07753 7.67773 5.4324 7.6773H21.7589C21.8131 7.6773 21.865 7.6988 21.9032 7.73707C21.9415 7.77534 21.963 7.82725 21.963 7.88138V19.3099ZM19.1059 13.1875C19.1059 13.3893 19.046 13.5866 18.9339 13.7544C18.8218 13.9222 18.6624 14.053 18.476 14.1302C18.2895 14.2075 18.0843 14.2277 17.8864 14.1883C17.6884 14.1489 17.5066 14.0517 17.3639 13.909C17.2212 13.7663 17.124 13.5845 17.0847 13.3866C17.0453 13.1886 17.0655 12.9835 17.1427 12.797C17.22 12.6106 17.3507 12.4512 17.5186 12.3391C17.6864 12.2269 17.8836 12.1671 18.0855 12.1671C18.3561 12.1671 18.6156 12.2746 18.807 12.466C18.9984 12.6573 19.1059 12.9169 19.1059 13.1875Z" fill="white"/>
</g>
</svg>
