<svg width="19" height="19" viewBox="0 0 19 19" fill="none" xmlns="http://www.w3.org/2000/svg">
<g id="pepicons-pop:chain-circle-filled">
<g clip-path="url(#clip0_704_5344)">
<rect width="19" height="19" rx="9.5" fill="white"/>
<g id="Group">
<g id="Mask group">
<mask id="mask0_704_5344" style="mask-type:luminance" maskUnits="userSpaceOnUse" x="0" y="0" width="19" height="19">
<g id="Group_2">
<path id="Vector" d="M0 0H19V19H0V0Z" fill="white"/>
<g id="Group_3">
<path id="Vector_2" fill-rule="evenodd" clip-rule="evenodd" d="M9.7871 10.6429C9.62616 10.5383 9.4874 10.403 9.37874 10.2448C9.27008 10.0866 9.19365 9.90851 9.15381 9.72075C9.11398 9.53298 9.11152 9.33921 9.14658 9.15049C9.18164 8.96177 9.25353 8.78181 9.35814 8.62088L10.952 6.17061C11.0549 6.00603 11.1895 5.86361 11.3481 5.75164C11.5066 5.63967 11.6859 5.56041 11.8754 5.51848C12.065 5.47655 12.2609 5.47279 12.4519 5.50742C12.6429 5.54205 12.8251 5.61438 12.9878 5.72018C13.1506 5.82599 13.2906 5.96314 13.3997 6.12365C13.5089 6.28416 13.585 6.4648 13.6235 6.65504C13.6621 6.84527 13.6624 7.04128 13.6244 7.23163C13.5864 7.42198 13.5109 7.60285 13.4022 7.76369L11.8091 10.2147C11.5978 10.5396 11.266 10.7673 10.8868 10.8476C10.5076 10.9279 10.112 10.8543 9.7871 10.6429ZM8.00257 10.7905C7.75725 10.3294 7.63999 9.81101 7.66299 9.28922C7.686 8.76743 7.84843 8.26133 8.13337 7.82361L9.72645 5.37334C9.93575 5.05152 10.2064 4.77407 10.5229 4.55685C10.8394 4.33962 11.1957 4.18686 11.5712 4.1073C11.9468 4.02773 12.3343 4.02292 12.7118 4.09313C13.0892 4.16335 13.4491 4.30721 13.7709 4.51651C14.0927 4.72582 14.3702 4.99646 14.5874 5.31298C14.8046 5.62951 14.9574 5.98572 15.0369 6.36128C15.1165 6.73684 15.1213 7.1244 15.0511 7.50182C14.9809 7.87924 14.837 8.23914 14.6277 8.56096L13.0346 11.0112C12.7574 11.4378 12.3737 11.7846 11.9214 12.0175C11.469 12.2503 10.9638 12.361 10.4555 12.3387C9.9473 12.3165 9.45367 12.1619 9.02346 11.8904C8.59325 11.6188 8.24136 11.2397 8.00257 10.7905Z" fill="black"/>
<path id="Vector_3" fill-rule="evenodd" clip-rule="evenodd" d="M6.17089 13.5214C6.00995 13.4168 5.87119 13.2815 5.76253 13.1233C5.65386 12.9651 5.57744 12.787 5.5376 12.5992C5.49777 12.4114 5.49531 12.2177 5.53037 12.029C5.56543 11.8402 5.63732 11.6603 5.74193 11.4993L7.33574 9.04907C7.43865 8.8845 7.57332 8.74207 7.73187 8.6301C7.89043 8.51813 8.0697 8.43887 8.25922 8.39694C8.44874 8.35501 8.64471 8.35125 8.8357 8.38588C9.02669 8.42051 9.20887 8.49284 9.37161 8.59865C9.53434 8.70445 9.67437 8.84161 9.78352 9.00212C9.89267 9.16262 9.96875 9.34327 10.0073 9.5335C10.0459 9.72373 10.0462 9.91974 10.0082 10.1101C9.9702 10.3004 9.89467 10.4813 9.78601 10.6422L8.19293 13.0932C7.98157 13.4181 7.6498 13.6457 7.2706 13.726C6.8914 13.8063 6.49582 13.7327 6.17089 13.5214ZM4.38635 13.669C4.14104 13.2079 4.02378 12.6895 4.04678 12.1677C4.06979 11.6459 4.23222 11.1398 4.51716 10.7021L6.11024 8.25254C6.53285 7.60259 7.19634 7.14714 7.95475 6.98638C8.33027 6.90679 8.7178 6.90193 9.0952 6.9721C9.47261 7.04227 9.83249 7.18609 10.1543 7.39534C10.4761 7.6046 10.7536 7.87519 10.9708 8.19167C11.1881 8.50815 11.3409 8.86432 11.4205 9.23985C11.5001 9.61538 11.5049 10.0029 11.4347 10.3803C11.3646 10.7577 11.2208 11.1176 11.0115 11.4394L9.41843 13.8897C9.14123 14.3163 8.7575 14.6631 8.30517 14.8959C7.85284 15.1288 7.34758 15.2395 6.83933 15.2172C6.33109 15.1949 5.83746 15.0404 5.40725 14.7688C4.97704 14.4973 4.62515 14.1182 4.38635 13.669Z" fill="black"/>
</g>
</g>
</mask>
<g mask="url(#mask0_704_5344)">
<path id="Vector_4" d="M9.5 19C14.7467 19 19 14.7467 19 9.5C19 4.25329 14.7467 0 9.5 0C4.25329 0 0 4.25329 0 9.5C0 14.7467 4.25329 19 9.5 19Z" fill="#00B512"/>
</g>
</g>
</g>
</g>
</g>
<defs>
<clipPath id="clip0_704_5344">
<rect width="19" height="19" rx="9.5" fill="white"/>
</clipPath>
</defs>
</svg>
