<svg width="39" height="39" viewBox="0 0 39 39" fill="none" xmlns="http://www.w3.org/2000/svg">
<g id="message-question 1">
<path id="Vector" d="M12.8319 35.8011C12.3828 35.8011 11.9176 35.6889 11.5005 35.4643C10.5863 34.9831 10.0249 34.0207 10.0249 32.9941V30.7166C5.1808 30.2194 2.00488 26.6583 2.00488 21.5576V11.9337C2.00488 6.41593 5.71012 2.71069 11.2279 2.71069H27.2679C32.7856 2.71069 36.4909 6.41593 36.4909 11.9337V21.5576C36.4909 27.0754 32.7856 30.7806 27.2679 30.7806H21.2208L14.3877 35.3361C13.9226 35.6409 13.3772 35.8011 12.8319 35.8011ZM11.2279 5.10064C7.08956 5.10064 4.41088 7.77932 4.41088 11.9176V21.5417C4.41088 25.6801 7.08956 28.3587 11.2279 28.3587C11.8855 28.3587 12.4309 28.9041 12.4309 29.5617V32.9783C12.4309 33.1868 12.5592 33.283 12.6394 33.3311C12.7196 33.3793 12.88 33.4274 13.0565 33.3151L20.1942 28.5673C20.3867 28.4389 20.6273 28.3587 20.8679 28.3587H27.2839C31.4222 28.3587 34.1009 25.6801 34.1009 21.5417V11.9176C34.1009 7.77932 31.4222 5.10064 27.2839 5.10064H11.2279Z" fill="#DADADA"/>
<path id="Vector_2" d="M19.2474 19.4244C18.5898 19.4244 18.0444 18.879 18.0444 18.2214V17.8845C18.0444 16.0239 19.4078 15.1096 19.9211 14.7567C20.5146 14.3557 20.7071 14.083 20.7071 13.666C20.7071 12.864 20.0494 12.2063 19.2474 12.2063C18.4454 12.2063 17.7878 12.864 17.7878 13.666C17.7878 14.3236 17.2424 14.869 16.5848 14.869C15.9272 14.869 15.3818 14.3236 15.3818 13.666C15.3818 11.5327 17.1141 9.80029 19.2474 9.80029C21.3807 9.80029 23.1131 11.5327 23.1131 13.666C23.1131 15.4946 21.7657 16.4088 21.2685 16.7457C20.6429 17.1627 20.4504 17.4354 20.4504 17.8845V18.2214C20.4504 18.895 19.9051 19.4244 19.2474 19.4244Z" fill="#DADADA"/>
<path id="Vector_3" d="M19.2479 23.4185C18.5742 23.4185 18.0449 22.8731 18.0449 22.2155C18.0449 21.5578 18.5903 21.0125 19.2479 21.0125C19.9056 21.0125 20.4509 21.5578 20.4509 22.2155C20.4509 22.8731 19.9216 23.4185 19.2479 23.4185Z" fill="#DADADA"/>
</g>
</svg>
