<svg width="24" height="24" viewBox="0 0 24 24" fill="none" xmlns="http://www.w3.org/2000/svg">
<g id="Notification">
<g id="Group 37">
<path id="Vector 37" d="M5.41688 17H18.5831C19.2741 17 19.7568 16.316 19.5253 15.665L18.6658 13.2475C18.3722 12.4219 18.2222 11.5522 18.2222 10.676V9.22222C18.2222 5.78578 15.4364 3 12 3C8.56356 3 5.77778 5.78578 5.77778 9.22222V10.676C5.77778 11.5522 5.62776 12.4219 5.33422 13.2475L4.47467 15.665C4.2432 16.316 4.72595 17 5.41688 17Z" stroke="#C4C4C4" stroke-width="1.5" stroke-linecap="round" stroke-linejoin="round"/>
<path id="Ellipse 1" d="M12 20C9.79086 20 8 18.6569 8 17H12H16C16 18.6569 14.2091 20 12 20Z" stroke="#C4C4C4" stroke-width="1.5"/>
</g>
</g>
</svg>
