<svg width="23" height="23" viewBox="0 0 23 23" fill="none" xmlns="http://www.w3.org/2000/svg">
<g id="solar:settings-linear">
<g id="Group">
<path id="Vector" d="M11.5 14.375C13.0878 14.375 14.375 13.0878 14.375 11.5C14.375 9.91218 13.0878 8.625 11.5 8.625C9.91218 8.625 8.625 9.91218 8.625 11.5C8.625 13.0878 9.91218 14.375 11.5 14.375Z" stroke="white" stroke-width="1.5"/>
<path id="Vector_2" d="M13.1916 2.06266C12.8399 1.91699 12.3934 1.91699 11.5002 1.91699C10.607 1.91699 10.1604 1.91699 9.80873 2.06266C9.57603 2.15898 9.36459 2.30023 9.18651 2.47831C9.00842 2.6564 8.86718 2.86783 8.77085 3.10053C8.68269 3.31424 8.64723 3.56437 8.63381 3.92758C8.62784 4.19015 8.55523 4.4469 8.4228 4.67371C8.29037 4.90051 8.10246 5.08994 7.87673 5.2242C7.64759 5.35266 7.38955 5.42076 7.12687 5.4221C6.86418 5.42344 6.60546 5.35798 6.37502 5.23187C6.05302 5.06128 5.82015 4.96737 5.58919 4.9367C5.08541 4.87045 4.57594 5.00695 4.17277 5.3162C3.87185 5.54908 3.6476 5.93528 3.20102 6.70866C2.75444 7.48203 2.53019 7.86824 2.48131 8.24678C2.44838 8.49638 2.46494 8.75003 2.53006 8.99322C2.59518 9.23642 2.70757 9.46441 2.86081 9.66416C3.00265 9.84816 3.20102 10.0025 3.50865 10.196C3.96194 10.4807 4.25327 10.9656 4.25327 11.5003C4.25327 12.0351 3.96194 12.52 3.50865 12.8037C3.20102 12.9982 3.00169 13.1525 2.86081 13.3365C2.70757 13.5362 2.59518 13.7642 2.53006 14.0074C2.46494 14.2506 2.44838 14.5043 2.48131 14.7539C2.53115 15.1315 2.75444 15.5186 3.20006 16.292C3.6476 17.0654 3.8709 17.4516 4.17277 17.6844C4.37252 17.8377 4.60051 17.9501 4.84371 18.0152C5.0869 18.0803 5.34055 18.0969 5.59015 18.064C5.82015 18.0333 6.05302 17.9394 6.37502 17.7688C6.60546 17.6427 6.86418 17.5772 7.12687 17.5786C7.38955 17.5799 7.64759 17.648 7.87673 17.7764C8.3396 18.0448 8.61465 18.5383 8.63381 19.0731C8.64723 19.4372 8.68173 19.6864 8.77085 19.9001C8.86718 20.1328 9.00842 20.3443 9.18651 20.5223C9.36459 20.7004 9.57603 20.8417 9.80873 20.938C10.1604 21.0837 10.607 21.0837 11.5002 21.0837C12.3934 21.0837 12.8399 21.0837 13.1916 20.938C13.4243 20.8417 13.6358 20.7004 13.8139 20.5223C13.992 20.3443 14.1332 20.1328 14.2295 19.9001C14.3177 19.6864 14.3531 19.4372 14.3666 19.0731C14.3857 18.5383 14.6608 18.0438 15.1236 17.7764C15.3528 17.648 15.6108 17.5799 15.8735 17.5786C16.1362 17.5772 16.3949 17.6427 16.6254 17.7688C16.9474 17.9394 17.1802 18.0333 17.4102 18.064C17.6598 18.0969 17.9135 18.0803 18.1567 18.0152C18.3999 17.9501 18.6279 17.8377 18.8276 17.6844C19.1295 17.4525 19.3528 17.0654 19.7994 16.292C20.2459 15.5186 20.4702 15.1324 20.5191 14.7539C20.552 14.5043 20.5354 14.2506 20.4703 14.0074C20.4052 13.7642 20.2928 13.5362 20.1396 13.3365C19.9977 13.1525 19.7994 12.9982 19.4917 12.8046C19.2672 12.6682 19.0811 12.4769 18.9508 12.2487C18.8206 12.0206 18.7505 11.763 18.7471 11.5003C18.7471 10.9656 19.0384 10.4807 19.4917 10.197C19.7994 10.0025 19.9987 9.84816 20.1396 9.66416C20.2928 9.46441 20.4052 9.23642 20.4703 8.99322C20.5354 8.75003 20.552 8.49638 20.5191 8.24678C20.4692 7.8692 20.2459 7.48203 19.8003 6.70866C19.3528 5.93528 19.1295 5.54908 18.8276 5.3162C18.6279 5.16295 18.3999 5.05056 18.1567 4.98545C17.9135 4.92033 17.6598 4.90377 17.4102 4.9367C17.1802 4.96737 16.9474 5.06128 16.6244 5.23187C16.3941 5.35781 16.1355 5.42317 15.873 5.42183C15.6105 5.42049 15.3527 5.35249 15.1236 5.2242C14.8979 5.08994 14.71 4.90051 14.5776 4.67371C14.4451 4.4469 14.3725 4.19015 14.3666 3.92758C14.3531 3.56341 14.3186 3.31424 14.2295 3.10053C14.1332 2.86783 13.992 2.6564 13.8139 2.47831C13.6358 2.30023 13.4243 2.15898 13.1916 2.06266Z" stroke="white" stroke-width="1.5"/>
</g>
</g>
</svg>
