<svg width="39" height="39" viewBox="0 0 39 39" fill="none" xmlns="http://www.w3.org/2000/svg">
<g id="3d-square 1">
<path id="Vector" d="M24.0599 36.4909H14.4359C5.72616 36.4909 2.00488 32.7696 2.00488 24.0599V14.4359C2.00488 5.72616 5.72616 2.00488 14.4359 2.00488H24.0599C32.7696 2.00488 36.4909 5.72616 36.4909 14.4359V24.0599C36.4909 32.7696 32.7696 36.4909 24.0599 36.4909ZM14.4359 4.41088C7.04144 4.41088 4.41088 7.04144 4.41088 14.4359V24.0599C4.41088 31.4543 7.04144 34.0849 14.4359 34.0849H24.0599C31.4543 34.0849 34.0849 31.4543 34.0849 24.0599V14.4359C34.0849 7.04144 31.4543 4.41088 24.0599 4.41088H14.4359Z" fill="#DADADA"/>
<path id="Vector_2" d="M19.2486 20.9798C19.0401 20.9798 18.8316 20.9317 18.6391 20.8194L10.1379 15.9112C9.56047 15.5743 9.36796 14.8365 9.7048 14.2751C10.0416 13.6977 10.7795 13.5052 11.3409 13.842L19.2326 18.4134L27.0761 13.8741C27.6536 13.5373 28.3914 13.7458 28.7122 14.3072C29.033 14.8686 28.8405 15.6225 28.2791 15.9433L19.8421 20.8194C19.6657 20.9157 19.4571 20.9798 19.2486 20.9798Z" fill="#DADADA"/>
<path id="Vector_3" d="M19.2479 29.7065C18.5903 29.7065 18.0449 29.1611 18.0449 28.5035V19.7777C18.0449 19.1201 18.5903 18.5747 19.2479 18.5747C19.9056 18.5747 20.4509 19.1201 20.4509 19.7777V28.5035C20.4509 29.1611 19.9056 29.7065 19.2479 29.7065Z" fill="#DADADA"/>
<path id="Vector_4" d="M19.2486 30.0744C18.3183 30.0744 17.4042 29.8659 16.6664 29.4649L11.5335 26.6098C9.99363 25.7597 8.80664 23.7226 8.80664 21.9582V16.5206C8.80664 14.7723 10.0097 12.7352 11.5335 11.869L16.6664 9.01392C18.142 8.19588 20.3554 8.19588 21.8311 9.01392L26.9639 11.869C28.5037 12.7192 29.6908 14.7563 29.6908 16.5206V21.9582C29.6908 23.7066 28.4877 25.7436 26.9639 26.6098L21.8311 29.4649C21.0932 29.882 20.179 30.0744 19.2486 30.0744ZM19.2486 10.8264C18.7193 10.8264 18.206 10.9227 17.8371 11.1312L12.7044 13.9863C11.9184 14.4194 11.2126 15.6384 11.2126 16.5206V21.9582C11.2126 22.8564 11.9184 24.0594 12.7044 24.4925L17.8371 27.3476C18.575 27.7647 19.9223 27.7647 20.6602 27.3476L25.7929 24.4925C26.5789 24.0594 27.2848 22.8404 27.2848 21.9582V16.5206C27.2848 15.6224 26.5789 14.4194 25.7929 13.9863L20.6602 11.1312C20.2912 10.9227 19.778 10.8264 19.2486 10.8264Z" fill="#DADADA"/>
</g>
</svg>
