<svg width="39" height="39" viewBox="0 0 39 39" fill="none" xmlns="http://www.w3.org/2000/svg">
<g id="user-square 1">
<path id="Vector" d="M24.0608 36.4909H14.4369C12.3196 36.4909 10.5552 36.2824 9.06349 35.8332C8.51813 35.6728 8.16525 35.1435 8.19733 34.5821C8.59833 29.7862 13.4585 26.0166 19.2488 26.0166C25.0393 26.0166 29.8834 29.7701 30.3004 34.5821C30.3485 35.1596 29.9956 35.6728 29.4342 35.8332C27.9425 36.2824 26.1781 36.4909 24.0608 36.4909ZM10.7798 33.7801C11.8384 33.9886 13.0414 34.0849 14.4369 34.0849H24.0608C25.4563 34.0849 26.6593 33.9886 27.718 33.7801C26.8678 30.7004 23.3551 28.4226 19.2488 28.4226C15.1427 28.4226 11.6299 30.7004 10.7798 33.7801Z" fill="white"/>
<path id="Vector_2" d="M24.06 3.20801H14.436C6.41601 3.20801 3.20801 6.41601 3.20801 14.436V24.06C3.20801 30.1231 5.03657 33.4434 9.39945 34.6785C9.75233 30.5081 14.035 27.2199 19.248 27.2199C24.461 27.2199 28.7437 30.5081 29.0966 34.6785C33.4594 33.4434 35.288 30.1231 35.288 24.06V14.436C35.288 6.41601 32.08 3.20801 24.06 3.20801ZM19.248 22.7287C16.0721 22.7287 13.5057 20.1462 13.5057 16.9703C13.5057 13.7944 16.0721 11.228 19.248 11.228C22.4239 11.228 24.9903 13.7944 24.9903 16.9703C24.9903 20.1462 22.4239 22.7287 19.248 22.7287Z" stroke="white" stroke-width="1.5" stroke-linecap="round" stroke-linejoin="round"/>
<path id="Vector_3" d="M19.248 23.9316C15.4145 23.9316 12.3027 20.8038 12.3027 16.9702C12.3027 13.1367 15.4145 10.0249 19.248 10.0249C23.0816 10.0249 26.1933 13.1367 26.1933 16.9702C26.1933 20.8038 23.0816 23.9316 19.248 23.9316ZM19.248 12.4309C16.7458 12.4309 14.7087 14.468 14.7087 16.9702C14.7087 19.4885 16.7458 21.5256 19.248 21.5256C21.7503 21.5256 23.7873 19.4885 23.7873 16.9702C23.7873 14.468 21.7503 12.4309 19.248 12.4309Z" fill="white"/>
</g>
</svg>
