<svg width="39" height="39" viewBox="0 0 39 39" fill="none" xmlns="http://www.w3.org/2000/svg">
<g id="wallet-money 2">
<path id="Vector" d="M17.246 27.0439V30.3001C17.246 33.0589 14.6796 35.2885 11.5197 35.2885C8.35982 35.2885 5.77734 33.0589 5.77734 30.3001V27.0439C5.77734 29.8028 8.34378 31.7597 11.5197 31.7597C14.6796 31.7597 17.246 29.7868 17.246 27.0439Z" stroke="#DADADA" stroke-width="1.5" stroke-linecap="round" stroke-linejoin="round"/>
<path id="Vector_2" d="M17.2434 22.6326C17.2434 23.4346 17.0189 24.1724 16.6339 24.814C15.6875 26.3699 13.7466 27.3483 11.501 27.3483C9.25543 27.3483 7.31457 26.3538 6.36821 24.814C5.98325 24.1724 5.75879 23.4346 5.75879 22.6326C5.75879 21.2531 6.40036 20.018 7.42692 19.1198C8.46952 18.2055 9.89701 17.6602 11.485 17.6602C13.0729 17.6602 14.5005 18.2216 15.5431 19.1198C16.6018 20.002 17.2434 21.2531 17.2434 22.6326Z" stroke="#DADADA" stroke-width="1.5" stroke-linecap="round" stroke-linejoin="round"/>
<path id="Vector_3" d="M17.246 22.6325V27.0435C17.246 29.8024 14.6796 31.7592 11.5197 31.7592C8.35982 31.7592 5.77734 29.7863 5.77734 27.0435V22.6325C5.77734 19.8736 8.34378 17.644 11.5197 17.644C13.1077 17.644 14.5353 18.2054 15.5779 19.1037C16.6044 20.0019 17.246 21.253 17.246 22.6325Z" stroke="#DADADA" stroke-width="1.5" stroke-linecap="round" stroke-linejoin="round"/>
<path id="Vector_4" d="M35.2877 17.596V20.9004C35.2877 21.7826 34.5819 22.5042 33.6837 22.5363H30.5397C28.8073 22.5363 27.2195 21.2691 27.0752 19.5368C26.9789 18.5263 27.3637 17.5799 28.0374 16.9223C28.6309 16.3128 29.4491 15.96 30.3473 15.96H33.6837C34.5819 15.992 35.2877 16.7138 35.2877 17.596Z" stroke="#DADADA" stroke-width="1.5" stroke-linecap="round" stroke-linejoin="round"/>
<path id="Vector_5" d="M3.20801 16.8418V13.6338C3.20801 9.27089 5.83857 6.22329 9.92877 5.71001C10.3458 5.64585 10.7789 5.61377 11.228 5.61377H25.664C26.081 5.61377 26.482 5.62979 26.867 5.69395C31.0053 6.17515 33.684 9.23881 33.684 13.6338V15.9596H30.3477C29.4494 15.9596 28.6314 16.3124 28.0379 16.922C27.3642 17.5796 26.9793 18.526 27.0755 19.5365C27.2199 21.2688 28.8078 22.536 30.5402 22.536H33.684V24.8618C33.684 29.6738 30.476 32.8818 25.664 32.8818H21.654" stroke="#DADADA" stroke-width="1.5" stroke-linecap="round" stroke-linejoin="round"/>
</g>
</svg>
